<mxfile host="65bd71144e">
    <diagram id="8zY5DMp2yBmGSBXi5O_2" name="Page-1">
        <mxGraphModel dx="1267" dy="663" grid="1" gridSize="10" guides="1" tooltips="1" connect="1" arrows="1" fold="1" page="1" pageScale="1" pageWidth="850" pageHeight="1100" math="0" shadow="0">
            <root>
                <mxCell id="0"/>
                <mxCell id="1" parent="0"/>
                <mxCell id="lEY7rElARV_J_1uq3YiQ-3" value="Parsing" style="shape=module;align=left;spacingLeft=20;align=center;verticalAlign=top;" parent="1" vertex="1">
                    <mxGeometry x="220" y="190" width="100" height="50" as="geometry"/>
                </mxCell>
                <mxCell id="lEY7rElARV_J_1uq3YiQ-4" value="Templating" style="shape=module;align=left;spacingLeft=20;align=center;verticalAlign=top;" parent="1" vertex="1">
                    <mxGeometry x="500" y="190" width="100" height="50" as="geometry"/>
                </mxCell>
                <mxCell id="lEY7rElARV_J_1uq3YiQ-5" value="Escapers" style="shape=module;align=left;spacingLeft=20;align=center;verticalAlign=top;" parent="1" vertex="1">
                    <mxGeometry x="425" y="300" width="100" height="50" as="geometry"/>
                </mxCell>
                <mxCell id="lEY7rElARV_J_1uq3YiQ-6" value="Templates" style="shape=module;align=left;spacingLeft=20;align=center;verticalAlign=top;" parent="1" vertex="1">
                    <mxGeometry x="590" y="300" width="100" height="50" as="geometry"/>
                </mxCell>
                <mxCell id="lEY7rElARV_J_1uq3YiQ-7" value="" style="endArrow=classic;html=1;rounded=0;exitX=0.5;exitY=1;exitDx=0;exitDy=0;entryX=0.5;entryY=0;entryDx=0;entryDy=0;" parent="1" source="lEY7rElARV_J_1uq3YiQ-4" target="lEY7rElARV_J_1uq3YiQ-5" edge="1">
                    <mxGeometry width="50" height="50" relative="1" as="geometry">
                        <mxPoint x="270" y="440" as="sourcePoint"/>
                        <mxPoint x="320" y="390" as="targetPoint"/>
                    </mxGeometry>
                </mxCell>
                <mxCell id="lEY7rElARV_J_1uq3YiQ-9" value="" style="endArrow=classic;html=1;rounded=0;exitX=0.75;exitY=1;exitDx=0;exitDy=0;" parent="1" source="lEY7rElARV_J_1uq3YiQ-4" target="lEY7rElARV_J_1uq3YiQ-6" edge="1">
                    <mxGeometry width="50" height="50" relative="1" as="geometry">
                        <mxPoint x="630" y="240" as="sourcePoint"/>
                        <mxPoint x="680" y="190" as="targetPoint"/>
                    </mxGeometry>
                </mxCell>
                <mxCell id="lEY7rElARV_J_1uq3YiQ-10" value="main" style="rounded=0;whiteSpace=wrap;html=1;" parent="1" vertex="1">
                    <mxGeometry x="365" y="60" width="120" height="60" as="geometry"/>
                </mxCell>
                <mxCell id="lEY7rElARV_J_1uq3YiQ-11" value="" style="endArrow=classic;html=1;rounded=0;exitX=0.5;exitY=1;exitDx=0;exitDy=0;entryX=1;entryY=0;entryDx=0;entryDy=0;" parent="1" source="lEY7rElARV_J_1uq3YiQ-10" target="lEY7rElARV_J_1uq3YiQ-3" edge="1">
                    <mxGeometry width="50" height="50" relative="1" as="geometry">
                        <mxPoint x="270" y="440" as="sourcePoint"/>
                        <mxPoint x="320" y="390" as="targetPoint"/>
                    </mxGeometry>
                </mxCell>
                <mxCell id="lEY7rElARV_J_1uq3YiQ-12" value="" style="endArrow=classic;html=1;rounded=0;entryX=0.5;entryY=0;entryDx=0;entryDy=0;exitX=0.75;exitY=1;exitDx=0;exitDy=0;" parent="1" source="lEY7rElARV_J_1uq3YiQ-10" target="lEY7rElARV_J_1uq3YiQ-4" edge="1">
                    <mxGeometry width="50" height="50" relative="1" as="geometry">
                        <mxPoint x="485" y="150" as="sourcePoint"/>
                        <mxPoint x="535" y="100" as="targetPoint"/>
                    </mxGeometry>
                </mxCell>
                <mxCell id="lEY7rElARV_J_1uq3YiQ-13" value="" style="endArrow=none;dashed=1;html=1;rounded=0;exitX=1;exitY=0.5;exitDx=0;exitDy=0;entryX=0.12;entryY=0.56;entryDx=0;entryDy=0;entryPerimeter=0;startArrow=block;startFill=1;" parent="1" source="lEY7rElARV_J_1uq3YiQ-3" target="lEY7rElARV_J_1uq3YiQ-4" edge="1">
                    <mxGeometry width="50" height="50" relative="1" as="geometry">
                        <mxPoint x="440" y="270" as="sourcePoint"/>
                        <mxPoint x="490" y="220" as="targetPoint"/>
                    </mxGeometry>
                </mxCell>
            </root>
        </mxGraphModel>
    </diagram>
</mxfile>